<svg xmlns="http://www.w3.org/2000/svg" width="640" height="420" viewBox="0 0 640 420">
  <defs>
    <linearGradient id="bg" x1="0" y1="0" x2="1" y2="1">
      <stop offset="0" stop-color="#17683a"/>
      <stop offset="0.55" stop-color="#76b852"/>
      <stop offset="1" stop-color="#e4ffd8"/>
    </linearGradient>
    <filter id="shadow" x="-20%" y="-20%" width="140%" height="140%">
      <feDropShadow dx="0" dy="16" stdDeviation="18" flood-color="#24110a" flood-opacity="0.32"/>
    </filter>
  </defs>
  <rect width="640" height="420" fill="url(#bg)"/>
  <circle cx="560" cy="70" r="120" fill="#ffffff" opacity="0.16"/>
  <circle cx="78" cy="350" r="140" fill="#000000" opacity="0.11"/>
  <g transform="translate(320 184) rotate(15)" filter="url(#shadow)">
    <ellipse cx="0" cy="0" rx="178" ry="112" fill="#fff8ec" opacity="0.96"/>
    <ellipse cx="0" cy="0" rx="122" ry="72" fill="#e4ffd8" opacity="0.98"/>
    <path d="M-78,-10 C-28,-72 52,-66 88,-8 C54,54 -38,62 -78,-10Z" fill="#17683a" opacity="0.88"/>
    <circle cx="-42" cy="-8" r="16" fill="#76b852"/>
    <circle cx="18" cy="-24" r="18" fill="#ffffff" opacity="0.65"/>
    <circle cx="50" cy="18" r="15" fill="#76b852" opacity="0.85"/>
  </g>
  <text x="46" y="70" font-family="Arial, Helvetica, sans-serif" font-size="22" font-weight="800" fill="#fff7ea" opacity="0.9">Salatlar</text>
  <text x="320" y="182" text-anchor="middle" font-family="Arial, Helvetica, sans-serif" font-size="78">🥗</text>
  <rect x="34" y="282" width="572" height="92" rx="18" fill="#fffaf2" opacity="0.94"/>
  <text x="320" y="327" text-anchor="middle" font-family="Arial, Helvetica, sans-serif" font-size="34" font-weight="900" fill="#24120c">Çoban salatı</text>
  <text x="320" y="356" text-anchor="middle" font-family="Arial, Helvetica, sans-serif" font-size="16" font-weight="700" fill="#7b675c">Demo menyu şəkli • adı ilə uyğun</text>
</svg>
